<svg xmlns="http://www.w3.org/2000/svg" viewBox="0 0 100 100" width="500" height="500" class="illustration"><defs><style>.cls-1{fill:#0099f5;}.cls-2,.cls-4,.cls-5{fill:#ffd44d;}.cls-3,.cls-6{fill:none;}.cls-3,.cls-4,.cls-6{stroke:#231f20;}.cls-3{stroke-miterlimit:10;}.cls-3,.cls-4,.cls-5,.cls-6{stroke-width:1.5px;}.cls-4,.cls-5,.cls-6{stroke-linejoin:bevel;}.cls-5{stroke:#ffd44d;}</style></defs><g id="Layer_2" data-name="Layer 2"><path class="cls-1" d="M16.18,21.31H71.73a2.3,2.3,0,0,1,2.3,2.3V58a0,0,0,0,1,0,0H13.88a0,0,0,0,1,0,0V23.61A2.3,2.3,0,0,1,16.18,21.31Z"></path><polygon class="cls-2" points="4.02 67.71 83.89 67.71 74.03 57.97 13.88 57.97 4.02 67.71"></polygon><path class="cls-3" d="M50.08,21.31H71.74A2.28,2.28,0,0,1,74,23.59V58H13.88V23.59a2.28,2.28,0,0,1,2.29-2.28h21.2"></path><line class="cls-3" x1="4.02" y1="67.71" x2="83.89" y2="67.71"></line><path class="cls-3" d="M83.89,67.71,74,58H13.88L4,67.71H4A2.58,2.58,0,0,0,6.6,70.29H81.31a2.58,2.58,0,0,0,2.58-2.58Z"></path><rect class="cls-4" x="22.43" y="27.65" width="24.88" height="23.62" rx="2.63"></rect><rect class="cls-4" x="19.91" y="27.65" width="24.88" height="23.62" rx="2.63"></rect><line class="cls-4" x1="56.59" y1="21.31" x2="56.59" y2="57.96"></line><line class="cls-4" x1="60.7" y1="27.29" x2="69.46" y2="27.29"></line><line class="cls-5" x1="60.7" y1="30.32" x2="65.33" y2="30.32"></line><line class="cls-4" x1="60.7" y1="33.34" x2="63.02" y2="33.34"></line><line class="cls-4" x1="60.7" y1="40.86" x2="65.33" y2="40.86"></line><line class="cls-5" x1="60.7" y1="43.84" x2="69.46" y2="43.84"></line><line class="cls-4" x1="60.7" y1="46.87" x2="67.11" y2="46.87"></line><line class="cls-4" x1="60.7" y1="49.89" x2="63.02" y2="49.89"></line><polyline class="cls-6" points="30.07 33.86 27.01 36.92 30.07 39.98"></polyline><polyline class="cls-6" points="34.63 44.83 37.69 41.77 34.63 38.71"></polyline><line class="cls-6" x1="35.91" y1="33.34" x2="28.86" y2="45.59"></line></g></svg>